<?xml version="1.0" encoding="UTF-8" standalone="no"?>
<svg
   xmlns:dc="http://purl.org/dc/elements/1.1/"
   xmlns:cc="http://creativecommons.org/ns#"
   xmlns:rdf="http://www.w3.org/1999/02/22-rdf-syntax-ns#"
   xmlns:svg="http://www.w3.org/2000/svg"
   xmlns="http://www.w3.org/2000/svg"
   xmlns:sodipodi="http://sodipodi.sourceforge.net/DTD/sodipodi-0.dtd"
   xmlns:inkscape="http://www.inkscape.org/namespaces/inkscape"
   width="20"
   height="20"
   viewBox="0 0 20 20"
   fill="none"
   version="1.1"
   id="svg4"
   sodipodi:docname="up-down.svg"
   inkscape:version="0.92.4 (5da689c313, 2019-01-14)">
  <metadata
     id="metadata10">
    <rdf:RDF>
      <cc:Work
         rdf:about="">
        <dc:format>image/svg+xml</dc:format>
        <dc:type
           rdf:resource="http://purl.org/dc/dcmitype/StillImage" />
      </cc:Work>
    </rdf:RDF>
  </metadata>
  <defs
     id="defs8" />
  <sodipodi:namedview
     pagecolor="#ffffff"
     bordercolor="#666666"
     borderopacity="1"
     objecttolerance="10"
     gridtolerance="10"
     guidetolerance="10"
     inkscape:pageopacity="0"
     inkscape:pageshadow="2"
     inkscape:window-width="1920"
     inkscape:window-height="1017"
     id="namedview6"
     showgrid="false"
     inkscape:zoom="11.8"
     inkscape:cx="-3.7711864"
     inkscape:cy="10"
     inkscape:window-x="-8"
     inkscape:window-y="-8"
     inkscape:window-maximized="1"
     inkscape:current-layer="svg4" />
  <path
     d="M14.7071 12.2929C15.0976 12.6834 15.0976 13.3166 14.7071 13.7071L10.7071 17.7071C10.3166 18.0976 9.68342 18.0976 9.29289 17.7071L5.29289 13.7071C4.90237 13.3166 4.90237 12.6834 5.29289 12.2929C5.68342 11.9024 6.31658 11.9024 6.70711 12.2929L9 14.5858L9 3C9 2.44772 9.44772 2 10 2C10.5523 2 11 2.44772 11 3L11 14.5858L13.2929 12.2929C13.6834 11.9024 14.3166 11.9024 14.7071 12.2929Z"
     id="path2"
     clip-rule="evenodd"
     fill-rule="evenodd"
     fill="#4A5568"
     style="fill:#ffffff" />
  <path
     inkscape:connector-curvature="0"
     style="clip-rule:evenodd;fill:#ffffff;fill-rule:evenodd"
     d="m 5.29289,7.7070972 c -0.39052,-0.39053 -0.39052,-1.02369 0,-1.41422 l 4,-4 c 0.39053,-0.39052 1.02371,-0.39052 1.41421,0 l 4,4 c 0.3905,0.39053 0.3905,1.02369 0,1.41422 -0.3905,0.3905205 -1.0237,0.3905205 -1.4142,0 L 11,5.4141972 V 16.999988 c 0,0.5523 -0.4477,1 -1,1 -0.55228,0 -1,-0.4477 -1,-1 V 5.4141972 l -2.29289,2.2929 c -0.39053,0.3905205 -1.02369,0.3905205 -1.41422,0 z"
     id="path2-3" />
</svg>
